# xmcd
# 
# Track frame offsets:
#     150
#     63562
#     82718
#     142048
# 
# Disc length: 2406
# 
# Revision: 0
# Processed by: cddbd v1.5.2PL0 Copyright (c) Steve Scherf et al.
# Submitted via: BonkEnc v1.0.8
# 
DISCID=2e096404
DTITLE=Gabor Szabo - Belsta River
DYEAR=1978
DGENRE=Fusion
TTITLE0=24 Carat
TTITLE1=Django
TTITLE2=First Tune In The Morning
TTITLE3=Stormy
EXTD=
EXTT0=
EXTT1=
EXTT2=
EXTT3=
PLAYORDER=
